<svg xmlns="http://www.w3.org/2000/svg" xmlns:xlink="http://www.w3.org/1999/xlink" contentStyleType="text/css" data-diagram-type="ACTIVITY" height="1475px" preserveAspectRatio="none" style="width:786px;height:1475px;background:#FAFAFA;" version="1.1" viewBox="0 0 786 1475" width="786px" zoomAndPan="magnify"><?plantuml 1.2026.6?><defs/><g><rect fill="#FAFAFA" height="1475" style="stroke:none;stroke-width:1;" width="786" x="0" y="0"/><g class="title" data-source-line="42"><text fill="#1B2631" font-family="Helvetica" font-size="18" font-weight="700" lengthAdjust="spacing" textLength="238.0166" x="273.2336" y="31.708">Canonical Routing Flow</text></g><ellipse cx="333.1654" cy="61.9531" fill="#2E86AB" rx="10" ry="10" style="stroke:#000000;stroke-width:1;"/><rect fill="#EAF2F8" height="35.1328" rx="5" ry="5" style="stroke:#2E86AB;stroke-width:1;" width="139.9961" x="263.1674" y="91.9531"/><text fill="#1B2631" font-family="Helvetica" font-size="13" lengthAdjust="spacing" textLength="119.9961" x="273.1674" y="114.02">Plan / PRD in hand</text><rect fill="#EAF2F8" height="50.2656" rx="5" ry="5" style="stroke:#2E86AB;stroke-width:1;" width="274.4141" x="195.9584" y="201.7539"/><text fill="#1B2631" font-family="Helvetica" font-size="13" lengthAdjust="spacing" textLength="155.105" x="205.9584" y="223.8208">Human checklist. No AI.</text><text fill="#1B2631" font-family="Helvetica" font-size="13" lengthAdjust="spacing" textLength="254.4141" x="205.9584" y="238.9536">(Rare + sensitive + taste-judged work)</text><ellipse cx="333.1654" cy="283.0195" fill="none" rx="11" ry="11" style="stroke:#000000;stroke-width:1;"/><ellipse cx="333.1654" cy="283.0195" fill="#FFFFFF" rx="6" ry="6" style="stroke:#000000;stroke-width:1;"/><polygon fill="#FDEBD0" points="295.8094,147.0859,370.5214,147.0859,382.5214,162.2188,370.5214,177.3516,295.8094,177.3516,283.8094,162.2188,295.8094,147.0859" style="stroke:#E67E22;stroke-width:1;stroke-linejoin:miter;stroke-miterlimit:10;"/><text fill="#34495E" font-family="Helvetica" font-size="11" lengthAdjust="spacing" textLength="84.3853" x="340.662" y="187.562">DON'T BOTHER</text><text fill="#1B2631" font-family="Helvetica" font-size="13" lengthAdjust="spacing" textLength="74.7119" x="295.8094" y="159.1528">/loop-which</text><text fill="#1B2631" font-family="Helvetica" font-size="13" lengthAdjust="spacing" textLength="52.0444" x="295.8094" y="174.2856">verdict?</text><rect fill="#EAF2F8" height="50.2656" rx="5" ry="5" style="stroke:#2E86AB;stroke-width:1;" width="192.0786" x="237.1261" y="384.4219"/><text fill="#1B2631" font-family="Helvetica" font-size="13" lengthAdjust="spacing" textLength="172.0786" x="247.1261" y="406.4888">Current session, one pass,</text><text fill="#1B2631" font-family="Helvetica" font-size="13" lengthAdjust="spacing" textLength="99.5313" x="247.1261" y="421.6216">human reviews</text><ellipse cx="333.1654" cy="466.0547" fill="none" rx="11" ry="11" style="stroke:#000000;stroke-width:1;"/><ellipse cx="333.1654" cy="466.0547" fill="#FFFFFF" rx="6" ry="6" style="stroke:#000000;stroke-width:1;"/><polygon fill="#FDEBD0" points="307.1432,336.0195,359.1876,336.0195,371.1876,348.0195,359.1876,360.0195,307.1432,360.0195,295.1432,348.0195,307.1432,336.0195" style="stroke:#E67E22;stroke-width:1;stroke-linejoin:miter;stroke-miterlimit:10;"/><text fill="#34495E" font-family="Helvetica" font-size="11" lengthAdjust="spacing" textLength="30.1963" x="340.662" y="370.23">CHAT</text><text fill="#1B2631" font-family="Helvetica" font-size="13" lengthAdjust="spacing" textLength="52.0444" x="307.1432" y="352.52">verdict?</text><polygon fill="#FDEBD0" points="245.2091,567.457,421.1217,567.457,433.1217,579.457,421.1217,591.457,245.2091,591.457,233.2091,579.457,245.2091,567.457" style="stroke:#E67E22;stroke-width:1;stroke-linejoin:miter;stroke-miterlimit:10;"/><text fill="#1B2631" font-family="Helvetica" font-size="13" lengthAdjust="spacing" textLength="175.9126" x="245.2091" y="583.9575">Checkable by a command?</text><text fill="#34495E" font-family="Helvetica" font-size="11" lengthAdjust="spacing" textLength="19.0083" x="214.2008" y="576.8628">yes</text><text fill="#34495E" font-family="Helvetica" font-size="11" lengthAdjust="spacing" textLength="13.7017" x="433.1217" y="576.8628">no</text><path d="M211.2275,606.457 L211.2275,630.1563 L191.2275,634.1563 L211.2275,638.1563 L211.2275,661.8555 A0,0 0 0 0 211.2275,661.8555 L440.3989,661.8555 A0,0 0 0 0 440.3989,661.8555 L440.3989,616.457 L430.3989,606.457 L211.2275,606.457 A0,0 0 0 0 211.2275,606.457" fill="#FCF3CF" style="stroke:#D4AC0D;stroke-width:1;"/><path d="M430.3989,606.457 L430.3989,616.457 L440.3989,616.457 L430.3989,606.457" fill="#FCF3CF" style="stroke:#D4AC0D;stroke-width:1;"/><text fill="#7D6608" font-family="Helvetica" font-size="13" font-weight="700" lengthAdjust="spacing" textLength="18.5732" x="217.2275" y="623.5239">P6</text><text fill="#7D6608" font-family="Helvetica" font-size="13" lengthAdjust="spacing" textLength="189.5981" x="235.8008" y="623.5239">: Checkability gate -- a check</text><text fill="#7D6608" font-family="Helvetica" font-size="13" lengthAdjust="spacing" textLength="193.8447" x="217.2275" y="638.6567">that cannot fail is trusting the</text><text fill="#7D6608" font-family="Helvetica" font-size="13" lengthAdjust="spacing" textLength="157.9043" x="217.2275" y="653.7896">worker with extra steps.</text><rect fill="#EAF2F8" height="65.3984" rx="5" ry="5" style="stroke:#2E86AB;stroke-width:1;" width="180.2275" x="11" y="601.457"/><text fill="#1B2631" font-family="Helvetica" font-size="13" lengthAdjust="spacing" textLength="156.1523" x="21" y="623.5239">/loop-drive Step 0 emits</text><text fill="#1B2631" font-family="Helvetica" font-size="13" lengthAdjust="spacing" textLength="160.2275" x="21" y="638.6567">one-task ringer manifest</text><text fill="#1B2631" font-family="Helvetica" font-size="13" lengthAdjust="spacing" textLength="100.0708" x="21" y="653.7896">(probe pattern)</text><ellipse cx="101.1138" cy="712.8555" fill="none" rx="11" ry="11" style="stroke:#000000;stroke-width:1;"/><ellipse cx="101.1138" cy="712.8555" fill="#FFFFFF" rx="6" ry="6" style="stroke:#000000;stroke-width:1;"/><rect fill="#EAF2F8" height="50.2656" rx="5" ry="5" style="stroke:#2E86AB;stroke-width:1;" width="209.6362" x="460.3989" y="601.457"/><text fill="#1B2631" font-family="Helvetica" font-size="13" lengthAdjust="spacing" textLength="189.6362" x="470.3989" y="623.5239">Session / subagent (frontier),</text><text fill="#1B2631" font-family="Helvetica" font-size="13" lengthAdjust="spacing" textLength="99.5313" x="470.3989" y="638.6567">human reviews</text><ellipse cx="565.217" cy="697.7227" fill="none" rx="11" ry="11" style="stroke:#000000;stroke-width:1;"/><ellipse cx="565.217" cy="697.7227" fill="#FFFFFF" rx="6" ry="6" style="stroke:#000000;stroke-width:1;"/><polygon fill="#FDEBD0" points="307.1432,519.0547,359.1876,519.0547,371.1876,531.0547,359.1876,543.0547,307.1432,543.0547,295.1432,531.0547,307.1432,519.0547" style="stroke:#E67E22;stroke-width:1;stroke-linejoin:miter;stroke-miterlimit:10;"/><text fill="#34495E" font-family="Helvetica" font-size="11" lengthAdjust="spacing" textLength="65.2803" x="340.662" y="553.2651">ONE AGENT</text><text fill="#1B2631" font-family="Helvetica" font-size="13" lengthAdjust="spacing" textLength="52.0444" x="307.1432" y="535.5552">verdict?</text><text fill="#34495E" font-family="Helvetica" font-size="11" lengthAdjust="spacing" textLength="72.1284" x="374.6842" y="528.4604">AGENT TEAM</text><rect fill="#EAF2F8" height="65.3984" rx="5" ry="5" style="stroke:#2E86AB;stroke-width:1;" width="356.7622" x="154.7843" y="820.5234"/><text fill="#1B2631" font-family="Helvetica" font-size="13" lengthAdjust="spacing" textLength="336.7622" x="164.7843" y="842.5903">/loop-drive Step 0 emits ONE manifest (W=1, T=N).</text><text fill="#1B2631" font-family="Helvetica" font-size="13" lengthAdjust="spacing" textLength="250.5674" x="164.7843" y="857.7231">Judgment units stay with orchestrator.</text><text fill="#1B2631" font-family="Helvetica" font-size="13" lengthAdjust="spacing" textLength="184.4565" x="164.7843" y="872.856">Review artifact page at end.</text><ellipse cx="333.1654" cy="916.9219" fill="none" rx="11" ry="11" style="stroke:#000000;stroke-width:1;"/><ellipse cx="333.1654" cy="916.9219" fill="#FFFFFF" rx="6" ry="6" style="stroke:#000000;stroke-width:1;"/><polygon fill="#FDEBD0" points="279.8229,765.8555,386.5079,765.8555,398.5079,780.9883,386.5079,796.1211,279.8229,796.1211,267.8229,780.9883,279.8229,765.8555" style="stroke:#E67E22;stroke-width:1;stroke-linejoin:miter;stroke-miterlimit:10;"/><text fill="#34495E" font-family="Helvetica" font-size="11" lengthAdjust="spacing" textLength="13.7017" x="337.1654" y="806.3315">no</text><text fill="#1B2631" font-family="Helvetica" font-size="13" lengthAdjust="spacing" textLength="106.6851" x="279.8229" y="777.9224">Units depend on</text><text fill="#1B2631" font-family="Helvetica" font-size="13" lengthAdjust="spacing" textLength="77.0161" x="279.8229" y="793.0552">each other?</text><path d="M456.7489,959.9219 L456.7489,1036.5859 L436.7489,1040.5859 L456.7489,1044.5859 L456.7489,1121.25 A0,0 0 0 0 456.7489,1121.25 L729.3192,1121.25 A0,0 0 0 0 729.3192,1121.25 L729.3192,969.9219 L719.3192,959.9219 L456.7489,959.9219 A0,0 0 0 0 456.7489,959.9219" fill="#FCF3CF" style="stroke:#D4AC0D;stroke-width:1;"/><path d="M719.3192,959.9219 L719.3192,969.9219 L729.3192,969.9219 L719.3192,959.9219" fill="#FCF3CF" style="stroke:#D4AC0D;stroke-width:1;"/><text fill="#7D6608" font-family="Helvetica" font-size="13" font-weight="700" lengthAdjust="spacing" textLength="117.6855" x="462.7489" y="976.9888">Per-unit routing</text><text fill="#7D6608" font-family="Helvetica" font-size="13" lengthAdjust="spacing" textLength="110.2905" x="584.5668" y="976.9888">(applied to EACH</text><text fill="#7D6608" font-family="Helvetica" font-size="13" lengthAdjust="spacing" textLength="198.7959" x="462.7489" y="992.1216">unit): checkable -&gt; ringer task</text><text fill="#7D6608" font-family="Helvetica" font-size="13" lengthAdjust="spacing" textLength="215.5093" x="462.7489" y="1007.2544">(engine/model from scoreboard);</text><text fill="#7D6608" font-family="Helvetica" font-size="13" lengthAdjust="spacing" textLength="238.8687" x="462.7489" y="1022.3872">judgment -&gt; orchestrator handles at</text><text fill="#7D6608" font-family="Helvetica" font-size="13" lengthAdjust="spacing" textLength="251.5703" x="462.7489" y="1037.52">gate, or fresh-mind review task (check</text><text fill="#7D6608" font-family="Helvetica" font-size="13" lengthAdjust="spacing" textLength="220.3145" x="462.7489" y="1052.6528">enforces structure, human judges</text><text fill="#7D6608" font-family="Helvetica" font-size="13" lengthAdjust="spacing" textLength="75.6895" x="462.7489" y="1067.7856">substance).</text><text fill="#7D6608" font-family="Helvetica" font-size="13" font-weight="700" lengthAdjust="spacing" textLength="18.5732" x="462.7489" y="1082.9185">P7</text><text fill="#7D6608" font-family="Helvetica" font-size="13" lengthAdjust="spacing" textLength="207.9746" x="481.3221" y="1082.9185">: model = scoreboard posterior;</text><text fill="#7D6608" font-family="Helvetica" font-size="13" lengthAdjust="spacing" textLength="223.4819" x="462.7489" y="1098.0513">benchmark prior only for untested</text><text fill="#7D6608" font-family="Helvetica" font-size="13" lengthAdjust="spacing" textLength="51.3843" x="462.7489" y="1113.1841">models.</text><rect fill="#EAF2F8" height="50.2656" rx="5" ry="5" style="stroke:#2E86AB;stroke-width:1;" width="207.167" x="229.5819" y="1015.4531"/><text fill="#1B2631" font-family="Helvetica" font-size="13" lengthAdjust="spacing" textLength="136.2651" x="239.5819" y="1037.52">/loop-drive compiles:</text><text fill="#1B2631" font-family="Helvetica" font-size="13" lengthAdjust="spacing" textLength="187.167" x="239.5819" y="1052.6528">dependency graph -&gt; waves</text><path d="M478.8134,1231.6484 L478.8134,1247.7813 L458.8134,1251.7813 L478.8134,1255.7813 L478.8134,1271.9141 A0,0 0 0 0 478.8134,1271.9141 L744.4838,1271.9141 A0,0 0 0 0 744.4838,1271.9141 L744.4838,1241.6484 L734.4838,1231.6484 L478.8134,1231.6484 A0,0 0 0 0 478.8134,1231.6484" fill="#FCF3CF" style="stroke:#D4AC0D;stroke-width:1;"/><path d="M734.4838,1231.6484 L734.4838,1241.6484 L744.4838,1241.6484 L734.4838,1231.6484" fill="#FCF3CF" style="stroke:#D4AC0D;stroke-width:1;"/><text fill="#7D6608" font-family="Helvetica" font-size="13" font-weight="700" lengthAdjust="spacing" textLength="27.6187" x="484.8134" y="1248.7153">P12</text><text fill="#7D6608" font-family="Helvetica" font-size="13" lengthAdjust="spacing" textLength="192.0928" x="512.432" y="1248.7153">: Human gates at every wave</text><text fill="#7D6608" font-family="Helvetica" font-size="13" lengthAdjust="spacing" textLength="244.6704" x="484.8134" y="1263.8481">boundary + anything outward-facing.</text><rect fill="#EAF2F8" height="80.5313" rx="5" ry="5" style="stroke:#2E86AB;stroke-width:1;" width="251.2959" x="207.5175" y="1211.5156"/><text fill="#1B2631" font-family="Helvetica" font-size="13" lengthAdjust="spacing" textLength="29.3135" x="217.5175" y="1233.5825">gate</text><text fill="#1B2631" font-family="Helvetica" font-size="13" lengthAdjust="spacing" textLength="231.2959" x="217.5175" y="1248.7153">review raw logs, spot-check a pass,</text><text fill="#1B2631" font-family="Helvetica" font-size="13" lengthAdjust="spacing" textLength="209.4536" x="217.5175" y="1263.8481">integrate patches, run full suite,</text><text fill="#1B2631" font-family="Helvetica" font-size="13" lengthAdjust="spacing" textLength="86.8232" x="217.5175" y="1278.981">distill lessons</text><rect fill="#EAF2F8" height="50.2656" rx="5" ry="5" style="stroke:#2E86AB;stroke-width:1;" width="203.8218" x="231.2545" y="1141.25"/><text fill="#1B2631" font-family="Helvetica" font-size="13" lengthAdjust="spacing" textLength="78.5332" x="241.2545" y="1163.3169">WAVE LOOP</text><text fill="#1B2631" font-family="Helvetica" font-size="13" lengthAdjust="spacing" textLength="183.8218" x="241.2545" y="1178.4497">write manifest -&gt; lint -&gt; run</text><polygon fill="#FDEBD0" points="290.1378,1312.0469,376.193,1312.0469,388.193,1324.0469,376.193,1336.0469,290.1378,1336.0469,278.1378,1324.0469,290.1378,1312.0469" style="stroke:#E67E22;stroke-width:1;stroke-linejoin:miter;stroke-miterlimit:10;"/><text fill="#34495E" font-family="Helvetica" font-size="11" lengthAdjust="spacing" textLength="13.7017" x="337.1654" y="1346.2573">no</text><text fill="#1B2631" font-family="Helvetica" font-size="13" lengthAdjust="spacing" textLength="86.0552" x="290.1378" y="1328.5474">more waves?</text><text fill="#34495E" font-family="Helvetica" font-size="11" lengthAdjust="spacing" textLength="19.0083" x="388.193" y="1321.4526">yes</text><rect fill="#EAF2F8" height="50.2656" rx="5" ry="5" style="stroke:#2E86AB;stroke-width:1;" width="181.3384" x="242.4962" y="1367.7573"/><text fill="#1B2631" font-family="Helvetica" font-size="13" lengthAdjust="spacing" textLength="161.3384" x="252.4962" y="1389.8242">Final verification wave +</text><text fill="#1B2631" font-family="Helvetica" font-size="13" lengthAdjust="spacing" textLength="153.2134" x="252.4962" y="1404.957">human on artifact page</text><ellipse cx="333.1654" cy="1449.0229" fill="none" rx="11" ry="11" style="stroke:#000000;stroke-width:1;"/><ellipse cx="333.1654" cy="1449.0229" fill="#FFFFFF" rx="6" ry="6" style="stroke:#000000;stroke-width:1;"/><line style="stroke:#34495E;stroke-width:1;" x1="333.1654" x2="333.1654" y1="71.9531" y2="91.9531"/><polygon fill="#34495E" points="329.1654,81.9531,333.1654,91.9531,337.1654,81.9531,333.1654,85.9531" style="stroke:#34495E;stroke-width:1;stroke-linejoin:miter;stroke-miterlimit:10;"/><line style="stroke:#34495E;stroke-width:1;" x1="333.1654" x2="333.1654" y1="252.0195" y2="272.0195"/><polygon fill="#34495E" points="329.1654,262.0195,333.1654,272.0195,337.1654,262.0195,333.1654,266.0195" style="stroke:#34495E;stroke-width:1;stroke-linejoin:miter;stroke-miterlimit:10;"/><line style="stroke:#34495E;stroke-width:1;" x1="333.1654" x2="333.1654" y1="177.3516" y2="201.7539"/><polygon fill="#34495E" points="329.1654,191.7539,333.1654,201.7539,337.1654,191.7539,333.1654,195.7539" style="stroke:#34495E;stroke-width:1;stroke-linejoin:miter;stroke-miterlimit:10;"/><line style="stroke:#34495E;stroke-width:1;" x1="382.5214" x2="480.3724" y1="162.2188" y2="162.2188"/><polygon fill="#34495E" points="476.3724,240.8203,480.3724,250.8203,484.3724,240.8203,480.3724,244.8203" style="stroke:#34495E;stroke-width:1;stroke-linejoin:miter;stroke-miterlimit:10;"/><line style="stroke:#34495E;stroke-width:1;" x1="480.3724" x2="480.3724" y1="162.2188" y2="316.0195"/><line style="stroke:#34495E;stroke-width:1;" x1="480.3724" x2="333.1654" y1="316.0195" y2="316.0195"/><line style="stroke:#34495E;stroke-width:1;" x1="333.1654" x2="333.1654" y1="316.0195" y2="336.0195"/><polygon fill="#34495E" points="329.1654,326.0195,333.1654,336.0195,337.1654,326.0195,333.1654,330.0195" style="stroke:#34495E;stroke-width:1;stroke-linejoin:miter;stroke-miterlimit:10;"/><line style="stroke:#34495E;stroke-width:1;" x1="333.1654" x2="333.1654" y1="127.0859" y2="147.0859"/><polygon fill="#34495E" points="329.1654,137.0859,333.1654,147.0859,337.1654,137.0859,333.1654,141.0859" style="stroke:#34495E;stroke-width:1;stroke-linejoin:miter;stroke-miterlimit:10;"/><line style="stroke:#34495E;stroke-width:1;" x1="333.1654" x2="333.1654" y1="434.6875" y2="455.0547"/><polygon fill="#34495E" points="329.1654,445.0547,333.1654,455.0547,337.1654,445.0547,333.1654,449.0547" style="stroke:#34495E;stroke-width:1;stroke-linejoin:miter;stroke-miterlimit:10;"/><line style="stroke:#34495E;stroke-width:1;" x1="333.1654" x2="333.1654" y1="360.0195" y2="384.4219"/><polygon fill="#34495E" points="329.1654,374.4219,333.1654,384.4219,337.1654,374.4219,333.1654,378.4219" style="stroke:#34495E;stroke-width:1;stroke-linejoin:miter;stroke-miterlimit:10;"/><line style="stroke:#34495E;stroke-width:1;" x1="371.1876" x2="439.2047" y1="348.0195" y2="348.0195"/><polygon fill="#34495E" points="435.2047,425.0547,439.2047,435.0547,443.2047,425.0547,439.2047,429.0547" style="stroke:#34495E;stroke-width:1;stroke-linejoin:miter;stroke-miterlimit:10;"/><line style="stroke:#34495E;stroke-width:1;" x1="439.2047" x2="439.2047" y1="348.0195" y2="499.0547"/><line style="stroke:#34495E;stroke-width:1;" x1="439.2047" x2="333.1654" y1="499.0547" y2="499.0547"/><line style="stroke:#34495E;stroke-width:1;" x1="333.1654" x2="333.1654" y1="499.0547" y2="519.0547"/><polygon fill="#34495E" points="329.1654,509.0547,333.1654,519.0547,337.1654,509.0547,333.1654,513.0547" style="stroke:#34495E;stroke-width:1;stroke-linejoin:miter;stroke-miterlimit:10;"/><line style="stroke:#34495E;stroke-width:1;" x1="101.1138" x2="101.1138" y1="666.8555" y2="701.8555"/><polygon fill="#34495E" points="97.1138,691.8555,101.1138,701.8555,105.1138,691.8555,101.1138,695.8555" style="stroke:#34495E;stroke-width:1;stroke-linejoin:miter;stroke-miterlimit:10;"/><line style="stroke:#34495E;stroke-width:1;" x1="565.217" x2="565.217" y1="651.7227" y2="686.7227"/><polygon fill="#34495E" points="561.217,676.7227,565.217,686.7227,569.217,676.7227,565.217,680.7227" style="stroke:#34495E;stroke-width:1;stroke-linejoin:miter;stroke-miterlimit:10;"/><line style="stroke:#34495E;stroke-width:1;" x1="233.2091" x2="101.1138" y1="579.457" y2="579.457"/><line style="stroke:#34495E;stroke-width:1;" x1="101.1138" x2="101.1138" y1="579.457" y2="601.457"/><polygon fill="#34495E" points="97.1138,591.457,101.1138,601.457,105.1138,591.457,101.1138,595.457" style="stroke:#34495E;stroke-width:1;stroke-linejoin:miter;stroke-miterlimit:10;"/><line style="stroke:#34495E;stroke-width:1;" x1="433.1217" x2="565.217" y1="579.457" y2="579.457"/><line style="stroke:#34495E;stroke-width:1;" x1="565.217" x2="565.217" y1="579.457" y2="601.457"/><polygon fill="#34495E" points="561.217,591.457,565.217,601.457,569.217,591.457,565.217,595.457" style="stroke:#34495E;stroke-width:1;stroke-linejoin:miter;stroke-miterlimit:10;"/><line style="stroke:#34495E;stroke-width:1;" x1="333.1654" x2="333.1654" y1="543.0547" y2="567.457"/><polygon fill="#34495E" points="329.1654,557.457,333.1654,567.457,337.1654,557.457,333.1654,561.457" style="stroke:#34495E;stroke-width:1;stroke-linejoin:miter;stroke-miterlimit:10;"/><line style="stroke:#34495E;stroke-width:1;" x1="371.1876" x2="690.0352" y1="531.0547" y2="531.0547"/><polygon fill="#34495E" points="686.0352,635.6563,690.0352,645.6563,694.0352,635.6563,690.0352,639.6563" style="stroke:#34495E;stroke-width:1;stroke-linejoin:miter;stroke-miterlimit:10;"/><line style="stroke:#34495E;stroke-width:1;" x1="690.0352" x2="690.0352" y1="531.0547" y2="745.8555"/><line style="stroke:#34495E;stroke-width:1;" x1="690.0352" x2="333.1654" y1="745.8555" y2="745.8555"/><line style="stroke:#34495E;stroke-width:1;" x1="333.1654" x2="333.1654" y1="745.8555" y2="765.8555"/><polygon fill="#34495E" points="329.1654,755.8555,333.1654,765.8555,337.1654,755.8555,333.1654,759.8555" style="stroke:#34495E;stroke-width:1;stroke-linejoin:miter;stroke-miterlimit:10;"/><line style="stroke:#34495E;stroke-width:1;" x1="333.1654" x2="333.1654" y1="885.9219" y2="905.9219"/><polygon fill="#34495E" points="329.1654,895.9219,333.1654,905.9219,337.1654,895.9219,333.1654,899.9219" style="stroke:#34495E;stroke-width:1;stroke-linejoin:miter;stroke-miterlimit:10;"/><line style="stroke:#34495E;stroke-width:1;" x1="333.1654" x2="333.1654" y1="796.1211" y2="820.5234"/><polygon fill="#34495E" points="329.1654,810.5234,333.1654,820.5234,337.1654,810.5234,333.1654,814.5234" style="stroke:#34495E;stroke-width:1;stroke-linejoin:miter;stroke-miterlimit:10;"/><line style="stroke:#34495E;stroke-width:1;" x1="398.5079" x2="521.5465" y1="780.9883" y2="780.9883"/><polygon fill="#34495E" points="517.5465,867.1563,521.5465,877.1563,525.5465,867.1563,521.5465,871.1563" style="stroke:#34495E;stroke-width:1;stroke-linejoin:miter;stroke-miterlimit:10;"/><line style="stroke:#34495E;stroke-width:1;" x1="521.5465" x2="521.5465" y1="780.9883" y2="949.9219"/><line style="stroke:#34495E;stroke-width:1;" x1="521.5465" x2="333.1654" y1="949.9219" y2="949.9219"/><line style="stroke:#34495E;stroke-width:1;" x1="333.1654" x2="333.1654" y1="949.9219" y2="1015.4531"/><polygon fill="#34495E" points="329.1654,1005.4531,333.1654,1015.4531,337.1654,1005.4531,333.1654,1009.4531" style="stroke:#34495E;stroke-width:1;stroke-linejoin:miter;stroke-miterlimit:10;"/><line style="stroke:#34495E;stroke-width:1;" x1="333.1654" x2="333.1654" y1="1191.5156" y2="1211.5156"/><polygon fill="#34495E" points="329.1654,1201.5156,333.1654,1211.5156,337.1654,1201.5156,333.1654,1205.5156" style="stroke:#34495E;stroke-width:1;stroke-linejoin:miter;stroke-miterlimit:10;"/><line style="stroke:#34495E;stroke-width:1;" x1="388.193" x2="756.4838" y1="1324.0469" y2="1324.0469"/><polygon fill="#34495E" points="752.4838,1255.2148,756.4838,1245.2148,760.4838,1255.2148,756.4838,1251.2148" style="stroke:#34495E;stroke-width:1;stroke-linejoin:miter;stroke-miterlimit:10;"/><line style="stroke:#34495E;stroke-width:1;" x1="756.4838" x2="756.4838" y1="1166.3828" y2="1324.0469"/><line style="stroke:#34495E;stroke-width:1;" x1="756.4838" x2="435.0763" y1="1166.3828" y2="1166.3828"/><polygon fill="#34495E" points="445.0763,1162.3828,435.0763,1166.3828,445.0763,1170.3828,441.0763,1166.3828" style="stroke:#34495E;stroke-width:1;stroke-linejoin:miter;stroke-miterlimit:10;"/><line style="stroke:#34495E;stroke-width:1;" x1="333.1654" x2="333.1654" y1="1292.0469" y2="1312.0469"/><polygon fill="#34495E" points="329.1654,1302.0469,333.1654,1312.0469,337.1654,1302.0469,333.1654,1306.0469" style="stroke:#34495E;stroke-width:1;stroke-linejoin:miter;stroke-miterlimit:10;"/><line style="stroke:#34495E;stroke-width:1;" x1="333.1654" x2="333.1654" y1="1065.7188" y2="1141.25"/><polygon fill="#34495E" points="329.1654,1131.25,333.1654,1141.25,337.1654,1131.25,333.1654,1135.25" style="stroke:#34495E;stroke-width:1;stroke-linejoin:miter;stroke-miterlimit:10;"/><line style="stroke:#34495E;stroke-width:1;" x1="333.1654" x2="333.1654" y1="1336.0469" y2="1367.7573"/><polygon fill="#34495E" points="329.1654,1357.7573,333.1654,1367.7573,337.1654,1357.7573,333.1654,1361.7573" style="stroke:#34495E;stroke-width:1;stroke-linejoin:miter;stroke-miterlimit:10;"/><line style="stroke:#34495E;stroke-width:1;" x1="333.1654" x2="333.1654" y1="1418.0229" y2="1438.0229"/><polygon fill="#34495E" points="329.1654,1428.0229,333.1654,1438.0229,337.1654,1428.0229,333.1654,1432.0229" style="stroke:#34495E;stroke-width:1;stroke-linejoin:miter;stroke-miterlimit:10;"/><?plantuml-src ZLRHLkCs47tFLyoUFZG1mYO44WXdssCIksnF2noWkozvKMmbrc9BFf9Ccdvzh-GGJ1B2mWkshsRktBapubEXsJndL1h-ZMihOfPzdP6IZKysvJcd8cD2DioJa0NJBASfYv_cMfKo6QbCQVeb2jnl3P7m6Iip6obfRnWYNFFicRl0kp4FuZzEtLxjeqbPeXP2pcd6CiDhNmAjrMALjtTwUd4MRdvyZTZTzUczi_TLGLfoJTrE_MHinREmookb4wvNnq_2ytvmjGkrAKuOH2VH-GvaZKptwgJVw-x0Z0NBbKosWaRZy6hSsNEWpZNi3yAJa_V1FqFamJ9jFwezNFFRWjmeoxUh64MzKRI9gbCVdmQZpdW3KUCx6FVxdRgu8vKNId9fF-x3AtHlOzUmVJBT8HkRxwZmDEf7Wnt0Uif1T3uw7s-3zYKSCykcp6nd79z5Ps5l5_9DbOCWx7TseEevJy-2tePjbDukyI8SN4HRi7gsgy75MUUj6v9jvd1q67KsKM-46lT65-SRY7qgtVFOCZdF-CTkU8NkTSCQjY_jex0Le5f3vxi-lJtRiEuzZPXKqkrVjusiMtzHfXQDXd7JrnZUPKpIPxgx7vEGb3APN3OQOaRDpvbIHNkHYZYTo6Uk4n7Rtrk4zIsfIUFRcryVwUhsyJgyfrQ3Q7XTveWKfpn-oeInnn2IWg_74zcyPvhJ8HakZS1GkxyjCvQtVvJ9d2UqKFgfTOaOnggYmMKYPXM5hQoZw-2noZOgjSRy8AWnGiaZN2suL9WnHnEPUYQQFmk-C3yLz_OcfE2FyAOAxY0ZLmURGh_faXZ5AaVCP7rYoOr3WaWbKw9TNG-M5zGXdWjh9b2Tjr7d4sc8ZWi00SIC6mj52gscZgwrN4jVEf745W9qdjhr4YF_St1mrpyu6DAAaiYm5MdEW6wt7JNtUWMrARCKCubOkEH4HiAGrQNnRGVp5Sm93a8BOLFY_rhDe10lpB7_39qy5__WbSCxt9VKb6fLyqCbEcnZoYcM2lhGd6aOK73TsjM0rq2-2LMubUAFOV0tPA-rvny9_N2N5uwAaXF9MPoI0d-zRa35vLtrVKTV1AVczo_T8thySjE27V-4wN97kVHfC0RBIWcb8QM16bWrmDrx-eGX4JCMMtHhpWdoWjJnfgdUy81N2f5nCvp8gWOkOpHCioAbzc-qOCySekniDrhDTTiH8rqDwy41DLbHP09pOXM5mUWQE8Te3QlMUvCYxifbpd50DBcS2ya_vzXc6Q4v-FydLffF5TE9TzoF5nrmjbwwtm6WZrg1SZx3S6c4u2Pjvm8jgHhhCr7pnNvSpX25Eq5r6TjIurZb0p_bnYbMJg6sZ7dhkAfru6nTCVnIeqU5WX-rKDhnd4A-D6VwYGht2eR8beHS4C62Cq-0yJ7WtxLtDOH7huRVWsyX_NLxUpUH2osW-DeJg3eJLVMwb2xHqDKwaQlgD5jGfkRcY4oXRDkNYMbRhHYSvEYezKFij3joKMXMPXdAH29W4cn1WMTeQPJqS_3EZ4EAxedJejgXZeVnLiEYMdh3UDZKtJKCRmw9oQLDtL339Gj8reP5yNZSgCtlIWDiS1YacKFTodkO8Qm5ly8Si9gbOIGahWWa53DS5jQDjqFJuSiuuyMRMRXi-0du7m00?></g></svg>